<?xml version="1.0" encoding="UTF-8"?>
<!DOCTYPE svg PUBLIC "-//W3C//DTD SVG 1.1//EN" "http://www.w3.org/Graphics/SVG/1.1/DTD/svg11.dtd">
<svg version="1.1" xmlns="http://www.w3.org/2000/svg" xmlns:xlink="http://www.w3.org/1999/xlink" x="0" y="0" width="220" height="220" viewBox="0, 0, 220, 220">
  <defs>
    <linearGradient id="Gradient_1" gradientUnits="userSpaceOnUse" x1="45.254" y1="100.04" x2="49.771" y2="100.04">
      <stop offset="0.335" stop-color="#000000"/>
      <stop offset="1" stop-color="#FFFFFF"/>
    </linearGradient>
  </defs>
  <g id="layer1">
    <path d="M106.5,192.04 L174,192.04 C174,192.04 174.263,15.8 174.231,12.8 C174.2,9.8 170.489,10.04 170.489,10.04 L44,10.04 C41,10.04 39,12.04 39,15.043 L39,197.043 C39,194.043 41,192.043 44,192.043 L106.5,192.043 z" fill="#526574" id="path2859"/>
    <path d="M174,205 L194,205 L194,20 L174,20 L174,205 z" fill="#000000" fill-opacity="0.196" id="path3637" display="none"/>
    <path d="M46.352,190.04 L173.874,190.08 L173.842,205.04 L46.352,205.04 C42.477,205.04 39.116,202.461 39.116,198.583 L39.116,197.026 C39.116,193.148 42.477,190.04 46.352,190.04 z" fill="#47535E" id="rect3639"/>
    <path d="M170.825,192.61 L174.231,192.61 L174.143,202.235 L170.896,202.235 L170.825,192.61 z" fill="#CDCDCD" display="none"/>
    <path d="M45.627,192.611 C45.627,192.611 173.894,192.544 172.604,192.607 C171.313,192.669 171.096,202.232 172.21,202.237 C172.753,202.239 45.627,202.236 45.627,202.236 C44.216,202.236 41.329,199.694 41.329,197.028 C41.329,194.362 44.216,192.611 45.627,192.611 z" fill="#EFEDE7" id="rect3642"/>
    <path d="M172.965,202.224 C172.629,202.22 172.481,202.243 172.21,202.237 C171.499,202.22 171.404,199.615 171.452,197.505 C171.514,194.791 171.687,192.595 172.604,192.607 C173.248,192.614 173.879,194.705 173.879,197.419 C173.879,200.133 173.652,202.233 172.965,202.224 z" fill="#FFFFFF"/>
    <path d="M45.254,10.04 L49.771,10.04 L49.771,190.04 L45.254,190.04 L45.254,10.04 z" fill="url(#Gradient_1)" opacity="0.138"/>
    <path d="M-25.213,129.574 L-24.912,129.574 L-24.912,129.574 L-25.213,129.574 L-25.213,129.574 z" fill="#CDCDCD"/>
    <path d="M171.393,190.04 L173.983,190.04 L173.993,192.023 C173.993,192.311 174.1,192.593 173.475,192.577 L171.717,192.593 C171.381,192.593 171.046,192.3 171.046,191.971 L171.046,191.971 C171.046,191.642 171.056,190.04 171.393,190.04 z" fill="#49535D"/>
    <path d="M172.004,204.657 L172.005,202.222 L173.259,202.235 C173.415,202.235 173.993,202.093 173.993,202.655 C173.993,202.655 173.993,204.827 173.993,204.468 C173.993,204.983 173.665,204.983 173.665,204.983 C173.409,204.983 172.004,204.973 172.004,204.657 z" fill="#49535D"/>
    <g>
      <path d="M57.338,43.028 Q57.422,42.716 57.506,42.716 Q57.59,42.716 57.722,42.956 Q57.842,43.196 57.944,43.238 Q58.046,43.28 58.322,43.28 L62.966,43.28 Q63.182,43.28 63.308,43.268 Q63.434,43.256 63.512,43.22 Q63.59,43.184 63.644,43.118 Q63.698,43.052 63.758,42.932 Q63.842,42.704 63.962,42.704 Q64.118,42.704 64.118,42.944 L64.094,44.936 Q64.094,45.032 64.058,45.086 Q64.022,45.14 63.968,45.122 Q63.914,45.104 63.86,45.002 Q63.806,44.9 63.758,44.66 Q63.698,44.42 63.632,44.246 Q63.566,44.072 63.446,43.958 Q63.326,43.844 63.134,43.79 Q62.942,43.736 62.63,43.736 L61.238,43.736 L61.238,49.772 Q61.238,50.096 61.316,50.204 Q61.394,50.312 61.646,50.372 L62.582,50.576 L62.582,50.816 Q62.27,50.792 61.706,50.786 Q61.142,50.78 60.422,50.78 Q59.702,50.78 59.216,50.786 Q58.73,50.792 58.586,50.816 L58.586,50.576 L59.462,50.408 Q59.81,50.336 59.918,50.198 Q60.026,50.06 60.026,49.76 L60.026,43.736 L58.634,43.736 Q58.43,43.724 58.28,43.76 Q58.13,43.796 57.98,43.916 Q57.83,44.036 57.668,44.246 Q57.506,44.456 57.278,44.792 Q57.11,45.02 57.026,45.08 Q56.942,45.14 56.918,45.086 Q56.894,45.032 56.912,44.894 Q56.93,44.756 56.966,44.588 z" fill="#A9C79A"/>
      <path d="M65.414,44.192 Q65.414,43.856 65.234,43.718 Q65.054,43.58 64.586,43.484 L64.586,43.292 Q64.826,43.292 65.276,43.178 Q65.726,43.064 66.11,42.86 L66.398,42.86 L66.398,47.06 Q67.166,46.064 68.126,46.004 Q68.222,45.992 68.318,45.998 Q68.414,46.004 68.522,46.016 Q69.074,46.1 69.386,46.502 Q69.698,46.904 69.698,47.624 L69.698,50.12 Q69.698,50.24 69.746,50.324 Q69.794,50.408 69.998,50.468 L70.454,50.588 L70.454,50.828 Q70.07,50.804 69.752,50.792 Q69.434,50.78 69.23,50.78 Q69.026,50.78 68.696,50.792 Q68.366,50.804 67.994,50.828 L67.994,50.588 L68.438,50.456 Q68.594,50.408 68.66,50.324 Q68.726,50.24 68.726,50.036 L68.726,47.696 Q68.726,47.24 68.48,46.964 Q68.234,46.688 67.778,46.688 Q67.322,46.688 66.998,46.952 Q66.674,47.216 66.398,47.612 L66.398,50.036 Q66.398,50.18 66.44,50.258 Q66.482,50.336 66.626,50.384 L67.322,50.588 L67.322,50.828 Q67.13,50.804 66.77,50.792 Q66.41,50.78 65.954,50.78 Q65.498,50.78 65.156,50.792 Q64.814,50.804 64.622,50.828 L64.622,50.588 L65.162,50.456 Q65.306,50.408 65.36,50.33 Q65.414,50.252 65.414,50.108 z" fill="#A9C79A"/>
      <path d="M75.422,47.84 L72.23,47.84 Q72.206,47.96 72.2,48.044 Q72.194,48.128 72.194,48.248 Q72.194,48.68 72.32,49.04 Q72.446,49.4 72.668,49.664 Q72.89,49.928 73.214,50.072 Q73.538,50.216 73.934,50.216 Q74.354,50.216 74.702,50.072 Q75.05,49.928 75.458,49.544 L75.506,49.784 Q75.134,50.324 74.618,50.648 Q74.102,50.972 73.31,50.972 Q72.842,50.972 72.452,50.786 Q72.062,50.6 71.774,50.27 Q71.486,49.94 71.33,49.49 Q71.174,49.04 71.174,48.5 Q71.174,47.96 71.348,47.498 Q71.522,47.036 71.834,46.7 Q72.146,46.364 72.584,46.178 Q73.022,45.992 73.55,45.992 Q74.414,45.992 74.9,46.514 Q75.386,47.036 75.422,47.84 z M72.29,47.516 L73.826,47.516 Q74.126,47.516 74.27,47.456 Q74.414,47.396 74.354,47.132 Q74.294,46.796 74.114,46.55 Q73.934,46.304 73.526,46.304 Q73.022,46.304 72.716,46.622 Q72.41,46.94 72.29,47.516 z" fill="#A9C79A"/>
      <path d="M87.854,47.648 L87.17,47.732 Q86.966,47.756 86.888,47.828 Q86.81,47.9 86.81,48.068 L86.81,49.4 Q86.81,49.736 86.798,49.922 Q86.786,50.108 86.714,50.222 Q86.642,50.336 86.498,50.408 Q86.354,50.48 86.102,50.576 Q85.634,50.756 84.968,50.864 Q84.302,50.972 83.618,50.972 Q82.682,50.972 81.884,50.708 Q81.086,50.444 80.51,49.958 Q79.934,49.472 79.61,48.77 Q79.286,48.068 79.286,47.204 Q79.286,46.244 79.646,45.488 Q80.006,44.732 80.636,44.216 Q81.266,43.7 82.112,43.43 Q82.958,43.16 83.93,43.16 Q85.526,43.16 86.594,43.736 L86.69,45.404 L86.474,45.44 Q86.102,44.54 85.508,44.024 Q84.914,43.508 84.014,43.508 Q83.21,43.508 82.592,43.76 Q81.974,44.012 81.548,44.48 Q81.122,44.948 80.906,45.602 Q80.69,46.256 80.69,47.06 Q80.69,47.768 80.924,48.416 Q81.158,49.064 81.584,49.556 Q82.01,50.048 82.604,50.336 Q83.198,50.624 83.93,50.624 Q84.83,50.624 85.226,50.288 Q85.622,49.952 85.622,49.376 L85.622,48.068 Q85.622,47.888 85.532,47.816 Q85.442,47.744 85.25,47.732 L84.206,47.648 L84.206,47.372 Q85.142,47.42 86.03,47.42 Q86.918,47.42 87.854,47.372 z" fill="#A9C79A"/>
      <path d="M88.358,50.828 L88.358,50.636 L88.862,50.528 Q89.102,50.468 89.168,50.348 Q89.234,50.228 89.234,49.916 L89.234,47.612 Q89.234,47.372 89.132,47.258 Q89.03,47.144 88.682,47.084 L88.406,47.036 L88.418,46.832 Q88.886,46.676 89.294,46.436 Q89.702,46.196 89.966,45.716 L90.182,45.716 Q90.206,46.052 90.212,46.394 Q90.218,46.736 90.23,47.156 Q90.338,46.952 90.476,46.76 Q90.614,46.568 90.818,46.364 Q91.022,46.16 91.202,46.076 Q91.382,45.992 91.538,45.992 Q91.838,45.992 92.03,46.166 Q92.222,46.34 92.222,46.652 Q92.222,46.94 92.072,47.108 Q91.922,47.276 91.67,47.276 Q91.55,47.276 91.442,47.222 Q91.334,47.168 91.238,47.096 Q91.142,47.024 91.052,46.97 Q90.962,46.916 90.89,46.916 Q90.782,46.916 90.668,47.018 Q90.554,47.12 90.464,47.27 Q90.374,47.42 90.314,47.588 Q90.254,47.756 90.242,47.9 Q90.23,47.996 90.23,48.086 Q90.23,48.176 90.23,48.248 L90.23,49.94 Q90.23,50.24 90.332,50.342 Q90.434,50.444 90.77,50.504 L91.478,50.636 L91.478,50.828 Q91.178,50.804 90.806,50.792 Q90.434,50.78 90.05,50.78 L89.846,50.78 Q89.426,50.78 89.054,50.792 Q88.682,50.804 88.358,50.828 z" fill="#A9C79A"/>
      <path d="M95.09,50.936 Q94.598,50.936 94.238,50.762 Q93.878,50.588 93.638,50.288 Q93.398,49.988 93.284,49.58 Q93.17,49.172 93.17,48.704 Q93.17,48.068 93.374,47.582 Q93.578,47.096 93.92,46.76 Q94.262,46.424 94.7,46.256 Q95.138,46.088 95.606,46.088 Q95.87,46.088 96.086,46.136 Q96.302,46.184 96.47,46.244 Q96.662,46.292 96.806,46.388 L97.526,46.004 L97.634,46.04 L97.634,49.772 Q97.634,50.24 98.042,50.228 Q98.138,50.228 98.204,50.198 Q98.27,50.168 98.318,50.132 Q98.378,50.072 98.414,50.048 L98.522,50.156 Q98.474,50.276 98.414,50.372 Q98.354,50.468 98.294,50.552 Q98.174,50.696 97.982,50.816 Q97.79,50.936 97.514,50.936 Q97.07,50.936 96.884,50.654 Q96.698,50.372 96.698,49.916 L96.698,49.604 Q96.626,49.856 96.5,50.096 Q96.374,50.336 96.176,50.522 Q95.978,50.708 95.708,50.822 Q95.438,50.936 95.09,50.936 z M96.71,48.248 Q96.71,47.888 96.656,47.57 Q96.602,47.252 96.47,47.018 Q96.338,46.784 96.11,46.646 Q95.882,46.508 95.534,46.508 Q95.306,46.508 95.06,46.61 Q94.814,46.712 94.604,46.934 Q94.394,47.156 94.262,47.522 Q94.13,47.888 94.13,48.404 Q94.13,48.788 94.214,49.136 Q94.298,49.484 94.466,49.748 Q94.634,50.012 94.88,50.168 Q95.126,50.324 95.45,50.324 Q95.714,50.324 95.948,50.174 Q96.182,50.024 96.35,49.76 Q96.518,49.496 96.614,49.142 Q96.71,48.788 96.71,48.38 z" fill="#A9C79A"/>
      <path d="M100.91,46.688 Q101.414,46.316 101.87,46.142 Q102.326,45.968 102.842,45.992 Q103.718,46.016 104.234,46.646 Q104.75,47.276 104.75,48.332 Q104.75,48.896 104.558,49.376 Q104.366,49.856 104.024,50.198 Q103.682,50.54 103.226,50.732 Q102.77,50.924 102.254,50.924 Q101.906,50.924 101.564,50.846 Q101.222,50.768 100.91,50.576 L100.91,52.4 Q100.91,52.568 101.012,52.652 Q101.114,52.736 101.414,52.784 L102.134,52.904 L102.134,53.156 Q101.942,53.132 101.69,53.12 Q101.438,53.108 101.078,53.108 L100.646,53.108 Q100.238,53.108 99.824,53.12 Q99.41,53.132 99.122,53.156 L99.122,52.916 L99.626,52.82 Q99.806,52.784 99.86,52.706 Q99.914,52.628 99.914,52.4 L99.914,47.096 Q99.914,46.652 99.758,46.64 L99.17,46.544 L99.206,46.376 Q99.518,46.268 99.758,46.166 Q99.998,46.064 100.13,45.992 Q100.274,45.908 100.454,45.776 Q100.634,45.644 100.73,45.512 L100.91,45.512 z M100.91,47.096 L100.91,49.568 Q100.91,50 101.24,50.282 Q101.57,50.564 102.158,50.564 Q102.854,50.564 103.262,50.024 Q103.67,49.484 103.67,48.608 Q103.67,48.14 103.55,47.756 Q103.43,47.372 103.208,47.108 Q102.986,46.844 102.686,46.712 Q102.386,46.58 102.026,46.616 Q101.738,46.64 101.462,46.766 Q101.186,46.892 100.91,47.096 z" fill="#A9C79A"/>
      <path d="M109.886,47.84 L106.694,47.84 Q106.67,47.96 106.664,48.044 Q106.658,48.128 106.658,48.248 Q106.658,48.68 106.784,49.04 Q106.91,49.4 107.132,49.664 Q107.354,49.928 107.678,50.072 Q108.002,50.216 108.398,50.216 Q108.818,50.216 109.166,50.072 Q109.514,49.928 109.922,49.544 L109.97,49.784 Q109.598,50.324 109.082,50.648 Q108.566,50.972 107.774,50.972 Q107.306,50.972 106.916,50.786 Q106.526,50.6 106.238,50.27 Q105.95,49.94 105.794,49.49 Q105.638,49.04 105.638,48.5 Q105.638,47.96 105.812,47.498 Q105.986,47.036 106.298,46.7 Q106.61,46.364 107.048,46.178 Q107.486,45.992 108.014,45.992 Q108.878,45.992 109.364,46.514 Q109.85,47.036 109.886,47.84 z M106.754,47.516 L108.29,47.516 Q108.59,47.516 108.734,47.456 Q108.878,47.396 108.818,47.132 Q108.758,46.796 108.578,46.55 Q108.398,46.304 107.99,46.304 Q107.486,46.304 107.18,46.622 Q106.874,46.94 106.754,47.516 z" fill="#A9C79A"/>
      <path d="M113.798,47.42 Q113.75,47.24 113.648,47.048 Q113.546,46.856 113.396,46.7 Q113.246,46.544 113.06,46.442 Q112.874,46.34 112.658,46.34 Q112.274,46.34 112.04,46.502 Q111.806,46.664 111.806,47.048 Q111.806,47.384 112.13,47.576 Q112.454,47.768 113.042,47.972 Q113.762,48.212 114.068,48.572 Q114.374,48.932 114.374,49.412 Q114.374,49.808 114.218,50.096 Q114.062,50.384 113.804,50.582 Q113.546,50.78 113.21,50.876 Q112.874,50.972 112.514,50.972 Q111.638,50.972 111.074,50.66 L110.954,49.256 L111.194,49.256 Q111.362,49.904 111.746,50.27 Q112.13,50.636 112.634,50.636 Q113.03,50.636 113.3,50.426 Q113.57,50.216 113.57,49.832 Q113.57,49.484 113.306,49.25 Q113.042,49.016 112.454,48.836 Q111.638,48.572 111.29,48.236 Q110.942,47.9 110.942,47.324 Q110.942,47.012 111.086,46.766 Q111.23,46.52 111.476,46.346 Q111.722,46.172 112.04,46.082 Q112.358,45.992 112.718,45.992 Q113.09,45.992 113.42,46.064 Q113.75,46.136 113.99,46.28 L114.062,47.42 z" fill="#A9C79A"/>
      <path d="M120.83,50.972 Q120.266,50.972 119.804,50.786 Q119.342,50.6 119.012,50.27 Q118.682,49.94 118.502,49.484 Q118.322,49.028 118.322,48.488 Q118.322,47.936 118.502,47.48 Q118.682,47.024 119.018,46.694 Q119.354,46.364 119.84,46.178 Q120.326,45.992 120.926,45.992 Q121.538,45.992 122.018,46.19 Q122.498,46.388 122.828,46.73 Q123.158,47.072 123.332,47.534 Q123.506,47.996 123.506,48.512 Q123.506,49.04 123.314,49.49 Q123.122,49.94 122.768,50.27 Q122.414,50.6 121.922,50.786 Q121.43,50.972 120.83,50.972 z M119.45,48.584 Q119.45,49.556 119.828,50.102 Q120.206,50.648 120.89,50.648 Q121.214,50.648 121.49,50.492 Q121.766,50.336 121.964,50.06 Q122.162,49.784 122.27,49.388 Q122.378,48.992 122.378,48.5 Q122.378,47.528 121.994,46.922 Q121.61,46.316 120.89,46.316 Q120.206,46.316 119.828,46.886 Q119.45,47.456 119.45,48.584 z" fill="#A9C79A"/>
      <path d="M126.386,46.184 L127.934,46.22 L127.934,46.64 L126.41,46.688 L126.41,49.652 Q126.41,50.384 126.914,50.456 L127.658,50.576 L127.658,50.816 Q126.986,50.78 126.254,50.78 L125.906,50.78 Q125.486,50.78 125.12,50.786 Q124.754,50.792 124.55,50.816 L124.55,50.588 L124.922,50.504 Q125.102,50.468 125.204,50.426 Q125.306,50.384 125.354,50.3 Q125.402,50.216 125.408,50.084 Q125.414,49.952 125.414,49.748 L125.414,46.832 Q125.174,46.772 124.538,46.76 L124.538,46.58 Q124.814,46.46 124.982,46.376 Q125.15,46.292 125.24,46.22 Q125.33,46.148 125.36,46.076 Q125.39,46.004 125.39,45.908 Q125.39,45.752 125.426,45.47 Q125.462,45.188 125.552,44.864 Q125.642,44.54 125.804,44.204 Q125.966,43.868 126.218,43.58 Q126.47,43.292 126.824,43.1 Q127.178,42.908 127.658,42.872 Q127.754,42.872 127.838,42.866 Q127.922,42.86 128.018,42.872 Q128.474,42.896 128.732,43.034 Q128.99,43.172 128.99,43.46 Q128.99,43.7 128.846,43.85 Q128.702,44 128.438,44 Q128.282,44 128.132,43.91 Q127.982,43.82 127.832,43.718 Q127.682,43.616 127.544,43.526 Q127.406,43.436 127.262,43.436 Q126.914,43.436 126.734,43.604 Q126.554,43.772 126.47,44.042 Q126.386,44.312 126.38,44.654 Q126.374,44.996 126.374,45.344 Q126.374,45.668 126.374,45.878 Q126.374,46.088 126.386,46.184 z" fill="#A9C79A"/>
      <path d="M137.042,46.484 L138.47,49.64 L140.342,44.864 Q140.606,44.216 140.6,43.928 Q140.594,43.64 140.294,43.58 L139.802,43.484 L139.802,43.244 Q139.922,43.28 140.714,43.28 Q141.122,43.28 141.398,43.274 Q141.674,43.268 141.77,43.244 L141.77,43.484 L141.41,43.592 Q141.23,43.652 141.134,43.76 Q141.038,43.868 140.942,44.132 L138.338,51.044 L137.99,51.044 L136.466,47.684 L134.846,51.044 L134.546,51.044 L131.846,44.408 Q131.738,44.144 131.66,43.994 Q131.582,43.844 131.522,43.76 Q131.462,43.676 131.396,43.634 Q131.33,43.592 131.234,43.556 L130.958,43.484 L130.958,43.244 Q131.258,43.28 132.074,43.28 Q132.902,43.28 133.334,43.244 L133.334,43.484 L132.89,43.568 Q132.794,43.592 132.794,43.676 Q132.794,43.76 132.86,43.934 Q132.926,44.108 133.058,44.444 L135.158,49.736 L136.298,47.348 L135.05,44.504 Q134.81,43.976 134.678,43.79 Q134.546,43.604 134.39,43.58 L133.91,43.484 L133.91,43.244 Q134.246,43.28 135.314,43.28 Q136.37,43.28 136.646,43.244 L136.646,43.484 L136.094,43.592 Q135.926,43.616 135.926,43.748 Q135.914,43.808 135.968,43.976 Q136.022,44.144 136.154,44.456 L136.862,46.124 L137.774,44.132 Q137.87,43.94 137.804,43.76 Q137.738,43.58 137.558,43.556 L137.162,43.484 L137.162,43.244 Q137.462,43.28 138.29,43.28 Q139.106,43.28 139.346,43.244 L139.346,43.484 L138.782,43.592 Q138.374,43.676 138.158,44.144 z" fill="#A9C79A"/>
      <path d="M142.094,50.828 L142.094,50.636 L142.598,50.528 Q142.838,50.468 142.904,50.348 Q142.97,50.228 142.97,49.916 L142.97,47.612 Q142.97,47.372 142.868,47.258 Q142.766,47.144 142.418,47.084 L142.142,47.036 L142.154,46.832 Q142.622,46.676 143.03,46.436 Q143.438,46.196 143.702,45.716 L143.918,45.716 Q143.942,46.052 143.948,46.394 Q143.954,46.736 143.966,47.156 Q144.074,46.952 144.212,46.76 Q144.35,46.568 144.554,46.364 Q144.758,46.16 144.938,46.076 Q145.118,45.992 145.274,45.992 Q145.574,45.992 145.766,46.166 Q145.958,46.34 145.958,46.652 Q145.958,46.94 145.808,47.108 Q145.658,47.276 145.406,47.276 Q145.286,47.276 145.178,47.222 Q145.07,47.168 144.974,47.096 Q144.878,47.024 144.788,46.97 Q144.698,46.916 144.626,46.916 Q144.518,46.916 144.404,47.018 Q144.29,47.12 144.2,47.27 Q144.11,47.42 144.05,47.588 Q143.99,47.756 143.978,47.9 Q143.966,47.996 143.966,48.086 Q143.966,48.176 143.966,48.248 L143.966,49.94 Q143.966,50.24 144.068,50.342 Q144.17,50.444 144.506,50.504 L145.214,50.636 L145.214,50.828 Q144.914,50.804 144.542,50.792 Q144.17,50.78 143.786,50.78 L143.582,50.78 Q143.162,50.78 142.79,50.792 Q142.418,50.804 142.094,50.828 z" fill="#A9C79A"/>
      <path d="M148.826,50.936 Q148.334,50.936 147.974,50.762 Q147.614,50.588 147.374,50.288 Q147.134,49.988 147.02,49.58 Q146.906,49.172 146.906,48.704 Q146.906,48.068 147.11,47.582 Q147.314,47.096 147.656,46.76 Q147.998,46.424 148.436,46.256 Q148.874,46.088 149.342,46.088 Q149.606,46.088 149.822,46.136 Q150.038,46.184 150.206,46.244 Q150.398,46.292 150.542,46.388 L151.262,46.004 L151.37,46.04 L151.37,49.772 Q151.37,50.24 151.778,50.228 Q151.874,50.228 151.94,50.198 Q152.006,50.168 152.054,50.132 Q152.114,50.072 152.15,50.048 L152.258,50.156 Q152.21,50.276 152.15,50.372 Q152.09,50.468 152.03,50.552 Q151.91,50.696 151.718,50.816 Q151.526,50.936 151.25,50.936 Q150.806,50.936 150.62,50.654 Q150.434,50.372 150.434,49.916 L150.434,49.604 Q150.362,49.856 150.236,50.096 Q150.11,50.336 149.912,50.522 Q149.714,50.708 149.444,50.822 Q149.174,50.936 148.826,50.936 z M150.446,48.248 Q150.446,47.888 150.392,47.57 Q150.338,47.252 150.206,47.018 Q150.074,46.784 149.846,46.646 Q149.618,46.508 149.27,46.508 Q149.042,46.508 148.796,46.61 Q148.55,46.712 148.34,46.934 Q148.13,47.156 147.998,47.522 Q147.866,47.888 147.866,48.404 Q147.866,48.788 147.95,49.136 Q148.034,49.484 148.202,49.748 Q148.37,50.012 148.616,50.168 Q148.862,50.324 149.186,50.324 Q149.45,50.324 149.684,50.174 Q149.918,50.024 150.086,49.76 Q150.254,49.496 150.35,49.142 Q150.446,48.788 150.446,48.38 z" fill="#A9C79A"/>
      <path d="M154.682,44.996 L154.874,44.996 Q154.874,45.32 154.88,45.638 Q154.886,45.956 154.886,46.28 L156.47,46.244 L156.47,46.724 L154.886,46.772 L154.886,49.112 Q154.886,49.436 154.91,49.676 Q154.934,49.916 155.006,50.072 Q155.078,50.228 155.21,50.306 Q155.342,50.384 155.57,50.384 Q155.75,50.372 155.978,50.306 Q156.206,50.24 156.482,50.06 L156.59,50.228 Q156.374,50.54 156.02,50.756 Q155.666,50.972 155.018,50.972 Q154.394,50.972 154.142,50.648 Q153.89,50.324 153.89,49.46 L153.89,46.796 Q153.722,46.796 153.566,46.802 Q153.41,46.808 153.242,46.808 Q153.074,46.808 153.074,46.694 Q153.074,46.58 153.23,46.508 Q153.758,46.292 154.022,46.028 Q154.154,45.896 154.352,45.632 Q154.55,45.368 154.682,44.996 z" fill="#A9C79A"/>
      <path d="M157.982,44.192 Q157.982,43.856 157.802,43.718 Q157.622,43.58 157.154,43.484 L157.154,43.292 Q157.394,43.292 157.844,43.178 Q158.294,43.064 158.678,42.86 L158.966,42.86 L158.966,47.06 Q159.734,46.064 160.694,46.004 Q160.79,45.992 160.886,45.998 Q160.982,46.004 161.09,46.016 Q161.642,46.1 161.954,46.502 Q162.266,46.904 162.266,47.624 L162.266,50.12 Q162.266,50.24 162.314,50.324 Q162.362,50.408 162.566,50.468 L163.022,50.588 L163.022,50.828 Q162.638,50.804 162.32,50.792 Q162.002,50.78 161.798,50.78 Q161.594,50.78 161.264,50.792 Q160.934,50.804 160.562,50.828 L160.562,50.588 L161.006,50.456 Q161.162,50.408 161.228,50.324 Q161.294,50.24 161.294,50.036 L161.294,47.696 Q161.294,47.24 161.048,46.964 Q160.802,46.688 160.346,46.688 Q159.89,46.688 159.566,46.952 Q159.242,47.216 158.966,47.612 L158.966,50.036 Q158.966,50.18 159.008,50.258 Q159.05,50.336 159.194,50.384 L159.89,50.588 L159.89,50.828 Q159.698,50.804 159.338,50.792 Q158.978,50.78 158.522,50.78 Q158.066,50.78 157.724,50.792 Q157.382,50.804 157.19,50.828 L157.19,50.588 L157.73,50.456 Q157.874,50.408 157.928,50.33 Q157.982,50.252 157.982,50.108 z" fill="#A9C79A"/>
    </g>
    <path d="M172.011,192.593 L177.86,192.593 L177.86,202.238 L172.011,202.251 L172.011,192.593 z" fill="#FFFFFF"/>
    <path d="M46.531,190.04 L48.495,190.04 C49.2,190.04 49.771,190.611 49.771,191.316 L49.771,191.316 C49.771,192.021 49.2,192.593 48.495,192.593 L46.531,192.593 C45.826,192.593 45.254,192.021 45.254,191.316 L45.254,191.316 C45.254,190.611 45.826,190.04 46.531,190.04 z" fill="#424D57"/>
  </g>
</svg>
